<?xml version="1.0"?>
<!DOCTYPE svg PUBLIC "-//W3C//DTD SVG 1.1//EN" "http://www.w3.org/Graphics/SVG/1.1/DTD/svg11.dtd">
<svg width="61.60619430932623mm" height="53.70796459430052mm" viewBox="0 0 61.60619430932623 53.70796459430052" xmlns="http://www.w3.org/2000/svg" version="1.1">
<g id="Unfold_Sketch" transform="translate(41.002212,26.853982) scale(1,-1)">
<path id="Unfold_Sketch_w0000"  d="M -40.39822971502571 -11.25 L -40.39822971502571 11.25 L -25.398229715025707 26.250000000000004 L 15.0 26.25 A 5 5 0 0 0 20 21.25L 20.0 -21.25 A 5 5 0 0 0 15 -26.25L -25.398229715025707 -26.250000000000004 L -40.39822971502571 -11.25 " stroke="#000080" stroke-width="0.35 px" style="stroke-width:0.35;stroke-miterlimit:4;stroke-dasharray:none;stroke-linecap:square;fill:none;fill-opacity:1;fill-rule: evenodd"/>
<circle cx="-1.562840181963292e-23" cy="-3.9934075959306823e-23" r="12.5" stroke="#000080" stroke-width="0.35 px" style="stroke-width:0.35;stroke-miterlimit:4;stroke-dasharray:none;stroke-linecap:square;fill:none"/>
<circle cx="-32.89822971502571" cy="7.66053886991358e-15" r="3.1" stroke="#000080" stroke-width="0.35 px" style="stroke-width:0.35;stroke-miterlimit:4;stroke-dasharray:none;stroke-linecap:square;fill:none"/>
<circle cx="-12.75" cy="-18.25" r="2.5" stroke="#000080" stroke-width="0.35 px" style="stroke-width:0.35;stroke-miterlimit:4;stroke-dasharray:none;stroke-linecap:square;fill:none"/>
<circle cx="12.750000000000002" cy="-18.25" r="2.5" stroke="#000080" stroke-width="0.35 px" style="stroke-width:0.35;stroke-miterlimit:4;stroke-dasharray:none;stroke-linecap:square;fill:none"/>
<circle cx="12.750000000000002" cy="18.25" r="2.5" stroke="#000080" stroke-width="0.35 px" style="stroke-width:0.35;stroke-miterlimit:4;stroke-dasharray:none;stroke-linecap:square;fill:none"/>
<circle cx="-12.75" cy="18.25" r="2.5" stroke="#000080" stroke-width="0.35 px" style="stroke-width:0.35;stroke-miterlimit:4;stroke-dasharray:none;stroke-linecap:square;fill:none"/>
<title>b'Unfold_Sketch'</title>
</g>
<g id="Unfold_Sketch_Outline" transform="translate(41.002212,26.853982) scale(1,-1)">
<path id="Unfold_Sketch_Outline_w0000"  d="M 15.0 -26.25 L -25.398229715025707 -26.250000000000004 L -40.39822971502571 -11.25 L -40.39822971502571 11.25 L -25.398229715025707 26.250000000000004 L 15.0 26.25 A 5 5 0 0 0 20 21.25L 20.0 -21.25 A 5 5 0 0 0 15 -26.25" stroke="#000080" stroke-width="0.35 px" style="stroke-width:0.35;stroke-miterlimit:4;stroke-dasharray:none;stroke-linecap:square;fill:none;fill-opacity:1;fill-rule: evenodd"/>
<title>b'Unfold_Sketch_Outline'</title>
</g>
<g id="Unfold_Sketch_Internal" transform="translate(41.002212,26.853982) scale(1,-1)">
<circle cx="-1.562840181963292e-23" cy="-3.9934075959306823e-23" r="12.5" stroke="#000000" stroke-width="0.35 px" style="stroke-width:0.35;stroke-miterlimit:4;stroke-dasharray:none;stroke-linecap:square;fill:none"/>
<circle cx="-32.89822971502571" cy="7.66053886991358e-15" r="3.1" stroke="#000000" stroke-width="0.35 px" style="stroke-width:0.35;stroke-miterlimit:4;stroke-dasharray:none;stroke-linecap:square;fill:none"/>
<circle cx="-12.75" cy="18.25" r="2.5" stroke="#000000" stroke-width="0.35 px" style="stroke-width:0.35;stroke-miterlimit:4;stroke-dasharray:none;stroke-linecap:square;fill:none"/>
<circle cx="12.750000000000002" cy="18.25" r="2.5" stroke="#000000" stroke-width="0.35 px" style="stroke-width:0.35;stroke-miterlimit:4;stroke-dasharray:none;stroke-linecap:square;fill:none"/>
<circle cx="12.750000000000002" cy="-18.25" r="2.5" stroke="#000000" stroke-width="0.35 px" style="stroke-width:0.35;stroke-miterlimit:4;stroke-dasharray:none;stroke-linecap:square;fill:none"/>
<circle cx="-12.75" cy="-18.25" r="2.5" stroke="#000000" stroke-width="0.35 px" style="stroke-width:0.35;stroke-miterlimit:4;stroke-dasharray:none;stroke-linecap:square;fill:none"/>
<title>b'Unfold_Sketch_Internal'</title>
</g>
<g id="Unfold_Sketch_bends" transform="translate(41.002212,26.853982) scale(1,-1)">
<path id="Unfold_Sketch_bends_w0000"  d="M -22.19911485751286 -26.25 L -22.19911485751286 26.25 " stroke="#c00000" stroke-width="0.35 px" style="stroke-width:0.35;stroke-miterlimit:4;stroke-dasharray:none;stroke-linecap:square;fill:none;fill-opacity:1;fill-rule: evenodd"/>
<title>b'Unfold_Sketch_bends'</title>
</g>
</svg>