<?xml version="1.0"?>
<!DOCTYPE svg PUBLIC "-//W3C//DTD SVG 1.1//EN" "http://www.w3.org/Graphics/SVG/1.1/DTD/svg11.dtd">
<svg width="63.64619430932622mm" height="53.74796459430052mm" viewBox="0 0 63.64619430932622 53.74796459430052" xmlns="http://www.w3.org/2000/svg" version="1.1">
<g id="Unfold" transform="translate(42.022212,26.873982) scale(1,-1)">
<path id="Unfold_f0000"  d="M 21.0 21.25 A 5 5 0 0 1 16 26.25L 16.0 26.25 A 5 5 0 0 0 21 21.25L 21.0 21.25 Z " stroke="#191919" stroke-width="0.35 px" style="stroke-width:0.35;stroke-miterlimit:4;stroke-dasharray:none;stroke-linecap:square;fill:#00aaff;fill-opacity:0.5;fill-rule: evenodd"/>
<path id="Unfold_f0001"  d="M 21.0 -21.25 L 21.0 21.25 L 21.0 21.25 L 21.0 -21.25 L 21.0 -21.25 Z " stroke="#191919" stroke-width="0.35 px" style="stroke-width:0.35;stroke-miterlimit:4;stroke-dasharray:none;stroke-linecap:square;fill:#00aaff;fill-opacity:0.5;fill-rule: evenodd"/>
<path id="Unfold_f0002"  d="M 16.0 -26.25 A 5 5 0 0 1 21 -21.25L 21.0 -21.25 A 5 5 0 0 0 16 -26.25L 16.0 -26.25 Z " stroke="#191919" stroke-width="0.35 px" style="stroke-width:0.35;stroke-miterlimit:4;stroke-dasharray:none;stroke-linecap:square;fill:#00aaff;fill-opacity:0.5;fill-rule: evenodd"/>
<circle cx="0.0" cy="0.0" r="12.5" stroke="#191919" stroke-width="0.35 px" style="stroke-width:0.35;stroke-miterlimit:4;stroke-dasharray:none;stroke-linecap:square;fill:#00aaff"/>
<path id="Unfold_f0004"  d="M -41.39822971502571 -11.25 L -26.398229715025703 -26.250000000000004 L -26.39822971502571 -26.25 L -41.39822971502571 -11.25 L -41.39822971502571 -11.25 Z " stroke="#191919" stroke-width="0.35 px" style="stroke-width:0.35;stroke-miterlimit:4;stroke-dasharray:none;stroke-linecap:square;fill:#00aaff;fill-opacity:0.5;fill-rule: evenodd"/>
<path id="Unfold_f0005"  d="M -41.39822971502571 11.25 L -41.39822971502571 -11.25 L -41.39822971502571 -11.25 L -41.39822971502571 11.25 L -41.39822971502571 11.25 Z " stroke="#191919" stroke-width="0.35 px" style="stroke-width:0.35;stroke-miterlimit:4;stroke-dasharray:none;stroke-linecap:square;fill:#00aaff;fill-opacity:0.5;fill-rule: evenodd"/>
<path id="Unfold_f0006"  d="M -26.398229715025703 26.250000000000004 L -41.39822971502571 11.25 L -41.39822971502571 11.25 L -26.398229715025707 26.25 L -26.398229715025707 26.25 Z " stroke="#191919" stroke-width="0.35 px" style="stroke-width:0.35;stroke-miterlimit:4;stroke-dasharray:none;stroke-linecap:square;fill:#00aaff;fill-opacity:0.5;fill-rule: evenodd"/>
<circle cx="0.0" cy="0.0" r="12.5" stroke="#191919" stroke-width="0.35 px" style="stroke-width:0.35;stroke-miterlimit:4;stroke-dasharray:none;stroke-linecap:square;fill:#00aaff"/>
<circle cx="-32.89822971502571" cy="7.66e-15" r="3.4" stroke="#191919" stroke-width="0.35 px" style="stroke-width:0.35;stroke-miterlimit:4;stroke-dasharray:none;stroke-linecap:square;fill:#00aaff"/>
<circle cx="-13.25" cy="-17.75" r="2.615" stroke="#191919" stroke-width="0.35 px" style="stroke-width:0.35;stroke-miterlimit:4;stroke-dasharray:none;stroke-linecap:square;fill:#00aaff"/>
<circle cx="13.25" cy="-17.75" r="2.615" stroke="#191919" stroke-width="0.35 px" style="stroke-width:0.35;stroke-miterlimit:4;stroke-dasharray:none;stroke-linecap:square;fill:#00aaff"/>
<circle cx="13.25" cy="17.75" r="2.615" stroke="#191919" stroke-width="0.35 px" style="stroke-width:0.35;stroke-miterlimit:4;stroke-dasharray:none;stroke-linecap:square;fill:#00aaff"/>
<circle cx="-13.25" cy="17.75" r="2.615" stroke="#191919" stroke-width="0.35 px" style="stroke-width:0.35;stroke-miterlimit:4;stroke-dasharray:none;stroke-linecap:square;fill:#00aaff"/>
<path id="Unfold_f0013"  d="M -26.398229715025707 -26.25 L 16.0 -26.25 L 16.0 -26.25 L -26.398229715025707 -26.25 L -26.398229715025707 -26.25 Z " stroke="#191919" stroke-width="0.35 px" style="stroke-width:0.35;stroke-miterlimit:4;stroke-dasharray:none;stroke-linecap:square;fill:#00aaff;fill-opacity:0.5;fill-rule: evenodd"/>
<circle cx="0.0" cy="0.0" r="12.5" stroke="#191919" stroke-width="0.35 px" style="stroke-width:0.35;stroke-miterlimit:4;stroke-dasharray:none;stroke-linecap:square;fill:#00aaff"/>
<path id="Unfold_f0015"  d="M 16.0 26.25 L -26.398229715025707 26.25 L -26.39822971502571 26.25 L 16.0 26.25 L 16.0 26.25 Z " stroke="#191919" stroke-width="0.35 px" style="stroke-width:0.35;stroke-miterlimit:4;stroke-dasharray:none;stroke-linecap:square;fill:#00aaff;fill-opacity:0.5;fill-rule: evenodd"/>
<title>b'Unfold'</title>
</g>
<g id="Unfold_Sketch" transform="translate(42.022212,26.873982) scale(1,-1)">
<path id="Unfold_Sketch_w0000"  d="M -41.39822971502571 -11.25 L -41.39822971502571 11.25 L -26.398229715025707 26.250000000000004 L 16.0 26.25 A 5 5 0 0 0 21 21.25L 21.0 -21.25 A 5 5 0 0 0 16 -26.25L -26.398229715025707 -26.250000000000004 L -41.39822971502571 -11.25 " stroke="#000080" stroke-width="0.35 px" style="stroke-width:0.35;stroke-miterlimit:4;stroke-dasharray:none;stroke-linecap:square;fill:none;fill-opacity:1;fill-rule: evenodd"/>
<circle cx="0.0" cy="0.0" r="12.5" stroke="#000080" stroke-width="0.35 px" style="stroke-width:0.35;stroke-miterlimit:4;stroke-dasharray:none;stroke-linecap:square;fill:none"/>
<circle cx="-32.89822971502571" cy="7.66e-15" r="3.4" stroke="#000080" stroke-width="0.35 px" style="stroke-width:0.35;stroke-miterlimit:4;stroke-dasharray:none;stroke-linecap:square;fill:none"/>
<circle cx="-13.25" cy="-17.75" r="2.615" stroke="#000080" stroke-width="0.35 px" style="stroke-width:0.35;stroke-miterlimit:4;stroke-dasharray:none;stroke-linecap:square;fill:none"/>
<circle cx="13.25" cy="-17.75" r="2.615" stroke="#000080" stroke-width="0.35 px" style="stroke-width:0.35;stroke-miterlimit:4;stroke-dasharray:none;stroke-linecap:square;fill:none"/>
<circle cx="13.25" cy="17.75" r="2.615" stroke="#000080" stroke-width="0.35 px" style="stroke-width:0.35;stroke-miterlimit:4;stroke-dasharray:none;stroke-linecap:square;fill:none"/>
<circle cx="-13.25" cy="17.75" r="2.615" stroke="#000080" stroke-width="0.35 px" style="stroke-width:0.35;stroke-miterlimit:4;stroke-dasharray:none;stroke-linecap:square;fill:none"/>
<title>b'Unfold_Sketch'</title>
</g>
<g id="Unfold_Sketch_Outline" transform="translate(42.022212,26.873982) scale(1,-1)">
<path id="Unfold_Sketch_Outline_w0000"  d="M 16.0 -26.25 L -26.398229715025707 -26.250000000000004 L -41.39822971502571 -11.25 L -41.39822971502571 11.25 L -26.398229715025707 26.250000000000004 L 16.0 26.25 A 5 5 0 0 0 21 21.25L 21.0 -21.25 A 5 5 0 0 0 16 -26.25" stroke="#000080" stroke-width="0.35 px" style="stroke-width:0.35;stroke-miterlimit:4;stroke-dasharray:none;stroke-linecap:square;fill:none;fill-opacity:1;fill-rule: evenodd"/>
<title>b'Unfold_Sketch_Outline'</title>
</g>
<g id="Unfold_Sketch_Internal" transform="translate(42.022212,26.873982) scale(1,-1)">
<circle cx="0.0" cy="0.0" r="12.5" stroke="#000000" stroke-width="0.35 px" style="stroke-width:0.35;stroke-miterlimit:4;stroke-dasharray:none;stroke-linecap:square;fill:none"/>
<circle cx="-32.89822971502571" cy="7.66e-15" r="3.4" stroke="#000000" stroke-width="0.35 px" style="stroke-width:0.35;stroke-miterlimit:4;stroke-dasharray:none;stroke-linecap:square;fill:none"/>
<circle cx="-13.25" cy="17.75" r="2.615" stroke="#000000" stroke-width="0.35 px" style="stroke-width:0.35;stroke-miterlimit:4;stroke-dasharray:none;stroke-linecap:square;fill:none"/>
<circle cx="13.25" cy="17.75" r="2.615" stroke="#000000" stroke-width="0.35 px" style="stroke-width:0.35;stroke-miterlimit:4;stroke-dasharray:none;stroke-linecap:square;fill:none"/>
<circle cx="13.25" cy="-17.75" r="2.615" stroke="#000000" stroke-width="0.35 px" style="stroke-width:0.35;stroke-miterlimit:4;stroke-dasharray:none;stroke-linecap:square;fill:none"/>
<circle cx="-13.25" cy="-17.75" r="2.615" stroke="#000000" stroke-width="0.35 px" style="stroke-width:0.35;stroke-miterlimit:4;stroke-dasharray:none;stroke-linecap:square;fill:none"/>
<title>b'Unfold_Sketch_Internal'</title>
</g>
<g id="Unfold_Sketch_bends" transform="translate(42.022212,26.873982) scale(1,-1)">
<path id="Unfold_Sketch_bends_w0000"  d="M -23.199114857512853 -26.25 L -23.199114857512853 26.25 " stroke="#c00000" stroke-width="0.35 px" style="stroke-width:0.35;stroke-miterlimit:4;stroke-dasharray:none;stroke-linecap:square;fill:none;fill-opacity:1;fill-rule: evenodd"/>
<title>b'Unfold_Sketch_bends'</title>
</g>
</svg>