<?xml version="1.0"?>
<!DOCTYPE svg PUBLIC "-//W3C//DTD SVG 1.1//EN" "http://www.w3.org/Graphics/SVG/1.1/DTD/svg11.dtd">
<svg width="47.94mm" height="119.03291886010284mm" viewBox="0 0 47.94 119.03291886010284" xmlns="http://www.w3.org/2000/svg" version="1.1">
<g id="Unfold" transform="translate(31.470000,59.016459) scale(1,-1)">
<path id="Unfold_f0000"  d="M 11.0 11.14822971502571 L 12.000000000000002 11.14822971502571 L 12.0 11.14822971502571 L 11.0 11.14822971502571 L 11.0 11.14822971502571 Z " stroke="#191919" stroke-width="0.35 px" style="stroke-width:0.35;stroke-miterlimit:4;stroke-dasharray:none;stroke-linecap:square;fill:#00aaff;fill-opacity:0.5;fill-rule: evenodd"/>
<path id="Unfold_f0001"  d="M 12.0 11.148229715025712 L 16.0 15.148229715025714 L 16.0 15.14822971502571 L 12.000000000000002 11.148229715025712 L 12.000000000000002 11.148229715025714 Z " stroke="#191919" stroke-width="0.35 px" style="stroke-width:0.35;stroke-miterlimit:4;stroke-dasharray:none;stroke-linecap:square;fill:#00aaff;fill-opacity:0.5;fill-rule: evenodd"/>
<circle cx="-21.5" cy="-21.148229715025714" r="4.1" stroke="#191919" stroke-width="0.35 px" style="stroke-width:0.35;stroke-miterlimit:4;stroke-dasharray:none;stroke-linecap:square;fill:#00aaff"/>
<path id="Unfold_f0003"  d="M 12.000000000000002 -11.14822971502571 L 11.0 -11.14822971502571 L 11.0 -11.14822971502571 L 12.000000000000002 -11.148229715025712 L 12.000000000000002 -11.148229715025714 Z " stroke="#191919" stroke-width="0.35 px" style="stroke-width:0.35;stroke-miterlimit:4;stroke-dasharray:none;stroke-linecap:square;fill:#00aaff;fill-opacity:0.5;fill-rule: evenodd"/>
<path id="Unfold_f0004"  d="M 16.0 -15.148229715025714 L 12.0 -11.148229715025712 L 12.0 -11.14822971502571 L 16.0 -15.148229715025714 L 16.0 -15.148229715025714 Z " stroke="#191919" stroke-width="0.35 px" style="stroke-width:0.35;stroke-miterlimit:4;stroke-dasharray:none;stroke-linecap:square;fill:#00aaff;fill-opacity:0.5;fill-rule: evenodd"/>
<path id="Unfold_f0005"  d="M 16.0 -56.54645943005142 A 3 3 0 0 0 13 -59.5465L 13.0 -59.54645943005142 A 3 3 0 0 1 16 -56.5465L 16.0 -56.54645943005142 Z " stroke="#191919" stroke-width="0.35 px" style="stroke-width:0.35;stroke-miterlimit:4;stroke-dasharray:none;stroke-linecap:square;fill:#00aaff;fill-opacity:0.5;fill-rule: evenodd"/>
<path id="Unfold_f0006"  d="M -28.0 -59.54645943005142 L 13.0 -59.54645943005142 L 13.0 -59.54645943005142 L -28.0 -59.54645943005142 L -28.0 -59.54645943005142 Z " stroke="#191919" stroke-width="0.35 px" style="stroke-width:0.35;stroke-miterlimit:4;stroke-dasharray:none;stroke-linecap:square;fill:#00aaff;fill-opacity:0.5;fill-rule: evenodd"/>
<path id="Unfold_f0007"  d="M -31.0 -56.54645943005142 A 3 3 0 0 1 -28 -59.5465L -28.0 -59.54645943005142 A 3 3 0 0 0 -31 -56.5465L -31.0 -56.54645943005142 Z " stroke="#191919" stroke-width="0.35 px" style="stroke-width:0.35;stroke-miterlimit:4;stroke-dasharray:none;stroke-linecap:square;fill:#00aaff;fill-opacity:0.5;fill-rule: evenodd"/>
<path id="Unfold_f0008"  d="M -11.0 -11.148229715025712 L -22.0 -11.148229715025712 L -22.0 -11.14822971502571 L -11.0 -11.14822971502571 L -11.0 -11.14822971502571 Z " stroke="#191919" stroke-width="0.35 px" style="stroke-width:0.35;stroke-miterlimit:4;stroke-dasharray:none;stroke-linecap:square;fill:#00aaff;fill-opacity:0.5;fill-rule: evenodd"/>
<path id="Unfold_f0009"  d="M -22.0 -11.14822971502571 A 9 9 0 0 1 -31 -20.1482L -31.0 -20.14822971502571 A 9 9 0 0 0 -22 -11.1482L -22.0 -11.14822971502571 Z " stroke="#191919" stroke-width="0.35 px" style="stroke-width:0.35;stroke-miterlimit:4;stroke-dasharray:none;stroke-linecap:square;fill:#00aaff;fill-opacity:0.5;fill-rule: evenodd"/>
<path id="Unfold_f0010"  d="M -11.0 11.148229715025712 L -22.0 11.14822971502571 L -22.0 11.14822971502571 L -11.0 11.14822971502571 L -11.0 11.148229715025712 Z " stroke="#191919" stroke-width="0.35 px" style="stroke-width:0.35;stroke-miterlimit:4;stroke-dasharray:none;stroke-linecap:square;fill:#00aaff;fill-opacity:0.5;fill-rule: evenodd"/>
<path id="Unfold_f0011"  d="M -22.0 11.14822971502571 A 9 9 0 0 0 -31 20.1482L -31.0 20.14822971502571 A 9 9 0 0 1 -22 11.1482L -22.0 11.14822971502571 Z " stroke="#191919" stroke-width="0.35 px" style="stroke-width:0.35;stroke-miterlimit:4;stroke-dasharray:none;stroke-linecap:square;fill:#00aaff;fill-opacity:0.5;fill-rule: evenodd"/>
<path id="Unfold_f0012"  d="M -31.0 55.54645943005142 A 3 3 0 0 0 -28 58.5465L -28.0 58.54645943005142 A 3 3 0 0 1 -31 55.5465L -31.0 55.54645943005142 Z " stroke="#191919" stroke-width="0.35 px" style="stroke-width:0.35;stroke-miterlimit:4;stroke-dasharray:none;stroke-linecap:square;fill:#00aaff;fill-opacity:0.5;fill-rule: evenodd"/>
<path id="Unfold_f0013"  d="M 13.0 58.54645943005142 L -28.0 58.54645943005142 L -28.0 58.54645943005142 L 13.0 58.54645943005142 L 13.0 58.54645943005142 Z " stroke="#191919" stroke-width="0.35 px" style="stroke-width:0.35;stroke-miterlimit:4;stroke-dasharray:none;stroke-linecap:square;fill:#00aaff;fill-opacity:0.5;fill-rule: evenodd"/>
<path id="Unfold_f0014"  d="M 16.0 55.54645943005142 A 3 3 0 0 1 13 58.5465L 13.0 58.54645943005142 A 3 3 0 0 0 16 55.5465L 16.0 55.54645943005142 Z " stroke="#191919" stroke-width="0.35 px" style="stroke-width:0.35;stroke-miterlimit:4;stroke-dasharray:none;stroke-linecap:square;fill:#00aaff;fill-opacity:0.5;fill-rule: evenodd"/>
<path id="Unfold_f0015"  d="M -2.5593030197007525 20.648229015186523 L 7.002645447373999 20.648229015186526 L 7.002645447373999 20.648229015186526 L -2.5593030197007525 20.648229015186523 L -2.5593030197007525 20.648229015186523 Z " stroke="#191919" stroke-width="0.35 px" style="stroke-width:0.35;stroke-miterlimit:4;stroke-dasharray:none;stroke-linecap:square;fill:#00aaff;fill-opacity:0.5;fill-rule: evenodd"/>
<path id="Unfold_f0016"  d="M -4.553060596574358 22.490334352011704 A 2 2 0 0 1 -2.5593 20.6482L -2.5593030197007525 20.648229015186523 A 2 2 0 0 0 -4.55306 22.4903L -4.553060596574358 22.490334352011704 Z " stroke="#191919" stroke-width="0.35 px" style="stroke-width:0.35;stroke-miterlimit:4;stroke-dasharray:none;stroke-linecap:square;fill:#00aaff;fill-opacity:0.5;fill-rule: evenodd"/>
<path id="Unfold_f0017"  d="M 7.000000000000001 15.648229015186528 L 7.000000000000001 15.648229015186528 A 2.5 2.5 0 0 1 7.00265 20.6482L 7.002645447373999 20.648229015186526 A 2.5 2.5 0 0 0 7 15.6482Z " stroke="#191919" stroke-width="0.35 px" style="stroke-width:0.35;stroke-miterlimit:4;stroke-dasharray:none;stroke-linecap:square;fill:#00aaff;fill-opacity:0.5;fill-rule: evenodd"/>
<path id="Unfold_f0018"  d="M -4.553060596574358 22.4903343520117 A 17 17 0 0 1 -17 37.5418L -17.000000000000004 37.54182602578071 A 17 17 0 0 0 -4.55306 22.4903L -4.553060596574358 22.490334352011704 Z " stroke="#191919" stroke-width="0.35 px" style="stroke-width:0.35;stroke-miterlimit:4;stroke-dasharray:none;stroke-linecap:square;fill:#00aaff;fill-opacity:0.5;fill-rule: evenodd"/>
<path id="Unfold_f0019"  d="M -4.51 15.648229015186526 L -4.51 15.648229015186526 L 7.0 15.648229015186528 L 7.000000000000001 15.648229015186528 L -4.510000000000002 15.648229015186526 Z " stroke="#191919" stroke-width="0.35 px" style="stroke-width:0.35;stroke-miterlimit:4;stroke-dasharray:none;stroke-linecap:square;fill:#00aaff;fill-opacity:0.5;fill-rule: evenodd"/>
<path id="Unfold_f0020"  d="M -17.000000000000004 37.54182602578072 L -17.000000000000004 37.54182602578072 A 2.63465 2.63465 0 0 1 -17 32.2725L -17.000000000000004 32.272527445669205 A 2.63465 2.63465 0 0 0 -17 37.5418Z " stroke="#191919" stroke-width="0.35 px" style="stroke-width:0.35;stroke-miterlimit:4;stroke-dasharray:none;stroke-linecap:square;fill:#00aaff;fill-opacity:0.5;fill-rule: evenodd"/>
<path id="Unfold_f0021"  d="M -9.505257025936906 20.79306639180098 L -9.505257025936906 20.79306639180098 A 5 5 0 0 1 -4.51 15.6482L -4.51 15.648229015186526 A 5 5 0 0 0 -9.50526 20.7931Z " stroke="#191919" stroke-width="0.35 px" style="stroke-width:0.35;stroke-miterlimit:4;stroke-dasharray:none;stroke-linecap:square;fill:#00aaff;fill-opacity:0.5;fill-rule: evenodd"/>
<path id="Unfold_f0022"  d="M -9.505257025936906 20.793066391800973 A 12 12 0 0 1 -17 32.2725L -17.000000000000004 32.27252744566921 A 12 12 0 0 0 -9.50526 20.7931L -9.505257025936906 20.793066391800984 Z " stroke="#191919" stroke-width="0.35 px" style="stroke-width:0.35;stroke-miterlimit:4;stroke-dasharray:none;stroke-linecap:square;fill:#00aaff;fill-opacity:0.5;fill-rule: evenodd"/>
<path id="Unfold_f0023"  d="M -4.553060596574358 -22.490334352011704 A 17 17 0 0 0 -17 -37.5418L -17.000000000000004 -37.54182602578072 A 17 17 0 0 1 -4.55306 -22.4903L -4.553060596574358 -22.490334352011708 Z " stroke="#191919" stroke-width="0.35 px" style="stroke-width:0.35;stroke-miterlimit:4;stroke-dasharray:none;stroke-linecap:square;fill:#00aaff;fill-opacity:0.5;fill-rule: evenodd"/>
<path id="Unfold_f0024"  d="M -2.559303019700753 -20.64822901518653 A 2 2 0 0 1 -4.55306 -22.4903L -4.553060596574358 -22.490334352011708 A 2 2 0 0 0 -2.5593 -20.6482L -2.559303019700753 -20.64822901518653 Z " stroke="#191919" stroke-width="0.35 px" style="stroke-width:0.35;stroke-miterlimit:4;stroke-dasharray:none;stroke-linecap:square;fill:#00aaff;fill-opacity:0.5;fill-rule: evenodd"/>
<path id="Unfold_f0025"  d="M -17.000000000000004 -37.54182602578072 L -17.000000000000004 -37.54182602578072 A 2.63465 2.63465 0 0 0 -17 -32.2725L -17.000000000000004 -32.27252744566921 A 2.63465 2.63465 0 0 1 -17 -37.5418Z " stroke="#191919" stroke-width="0.35 px" style="stroke-width:0.35;stroke-miterlimit:4;stroke-dasharray:none;stroke-linecap:square;fill:#00aaff;fill-opacity:0.5;fill-rule: evenodd"/>
<path id="Unfold_f0026"  d="M -2.559303019700753 -20.64822901518653 L 7.002645447373999 -20.64822901518653 L 7.002645447373999 -20.64822901518653 L -2.559303019700753 -20.64822901518653 L -2.559303019700753 -20.64822901518653 Z " stroke="#191919" stroke-width="0.35 px" style="stroke-width:0.35;stroke-miterlimit:4;stroke-dasharray:none;stroke-linecap:square;fill:#00aaff;fill-opacity:0.5;fill-rule: evenodd"/>
<path id="Unfold_f0027"  d="M -9.505257025936906 -20.793066391800977 A 12 12 0 0 0 -17 -32.2725L -17.000000000000004 -32.27252744566921 A 12 12 0 0 1 -9.50526 -20.7931L -9.505257025936906 -20.793066391800988 Z " stroke="#191919" stroke-width="0.35 px" style="stroke-width:0.35;stroke-miterlimit:4;stroke-dasharray:none;stroke-linecap:square;fill:#00aaff;fill-opacity:0.5;fill-rule: evenodd"/>
<path id="Unfold_f0028"  d="M 7.000000000000001 -15.648229015186534 L 7.000000000000001 -15.648229015186534 A 2.5 2.5 0 0 0 7.00265 -20.6482L 7.002645447373999 -20.64822901518653 A 2.5 2.5 0 0 1 7 -15.6482Z " stroke="#191919" stroke-width="0.35 px" style="stroke-width:0.35;stroke-miterlimit:4;stroke-dasharray:none;stroke-linecap:square;fill:#00aaff;fill-opacity:0.5;fill-rule: evenodd"/>
<path id="Unfold_f0029"  d="M -9.505257025936906 -20.793066391800988 L -9.505257025936906 -20.79306639180099 A 5 5 0 0 0 -4.51 -15.6482L -4.51 -15.64822901518653 A 5 5 0 0 1 -9.50526 -20.7931Z " stroke="#191919" stroke-width="0.35 px" style="stroke-width:0.35;stroke-miterlimit:4;stroke-dasharray:none;stroke-linecap:square;fill:#00aaff;fill-opacity:0.5;fill-rule: evenodd"/>
<path id="Unfold_f0030"  d="M -4.51 -15.648229015186532 L -4.51 -15.648229015186532 L 7.0 -15.648229015186534 L 7.000000000000001 -15.648229015186534 L -4.510000000000002 -15.648229015186534 Z " stroke="#191919" stroke-width="0.35 px" style="stroke-width:0.35;stroke-miterlimit:4;stroke-dasharray:none;stroke-linecap:square;fill:#00aaff;fill-opacity:0.5;fill-rule: evenodd"/>
<circle cx="-21.5" cy="-21.148229715025714" r="4.1" stroke="#191919" stroke-width="0.35 px" style="stroke-width:0.35;stroke-miterlimit:4;stroke-dasharray:none;stroke-linecap:square;fill:#00aaff"/>
<circle cx="-21.5" cy="21.14822971502571" r="4.1" stroke="#191919" stroke-width="0.35 px" style="stroke-width:0.35;stroke-miterlimit:4;stroke-dasharray:none;stroke-linecap:square;fill:#00aaff"/>
<circle cx="-25.0" cy="51.296459430051414" r="2.6" stroke="#191919" stroke-width="0.35 px" style="stroke-width:0.35;stroke-miterlimit:4;stroke-dasharray:none;stroke-linecap:square;fill:#00aaff"/>
<circle cx="-25.0" cy="-51.296459430051414" r="2.6" stroke="#191919" stroke-width="0.35 px" style="stroke-width:0.35;stroke-miterlimit:4;stroke-dasharray:none;stroke-linecap:square;fill:#00aaff"/>
<circle cx="10.0" cy="51.296459430051414" r="2.6" stroke="#191919" stroke-width="0.35 px" style="stroke-width:0.35;stroke-miterlimit:4;stroke-dasharray:none;stroke-linecap:square;fill:#00aaff"/>
<circle cx="10.0" cy="-51.296459430051414" r="2.6" stroke="#191919" stroke-width="0.35 px" style="stroke-width:0.35;stroke-miterlimit:4;stroke-dasharray:none;stroke-linecap:square;fill:#00aaff"/>
<path id="Unfold_f0037"  d="M -31.0 55.546459430051414 L -31.0 20.14822971502571 L -31.0 20.14822971502571 L -31.0 55.54645943005142 L -31.0 55.54645943005142 Z " stroke="#191919" stroke-width="0.35 px" style="stroke-width:0.35;stroke-miterlimit:4;stroke-dasharray:none;stroke-linecap:square;fill:#00aaff;fill-opacity:0.5;fill-rule: evenodd"/>
<path id="Unfold_f0038"  d="M -31.0 -20.148229715025714 L -31.0 -56.54645943005142 L -31.0 -56.54645943005142 L -31.0 -20.14822971502571 L -31.0 -20.14822971502571 Z " stroke="#191919" stroke-width="0.35 px" style="stroke-width:0.35;stroke-miterlimit:4;stroke-dasharray:none;stroke-linecap:square;fill:#00aaff;fill-opacity:0.5;fill-rule: evenodd"/>
<circle cx="-21.5" cy="-21.148229715025714" r="4.1" stroke="#191919" stroke-width="0.35 px" style="stroke-width:0.35;stroke-miterlimit:4;stroke-dasharray:none;stroke-linecap:square;fill:#00aaff"/>
<path id="Unfold_f0040"  d="M 16.0 15.148229715025714 L 16.0 55.54645943005142 L 16.0 55.54645943005142 L 16.0 15.148229715025714 L 16.0 15.148229715025714 Z " stroke="#191919" stroke-width="0.35 px" style="stroke-width:0.35;stroke-miterlimit:4;stroke-dasharray:none;stroke-linecap:square;fill:#00aaff;fill-opacity:0.5;fill-rule: evenodd"/>
<path id="Unfold_f0041"  d="M 16.0 -56.54645943005142 L 16.0 -15.148229715025714 L 16.0 -15.14822971502571 L 16.0 -56.54645943005142 L 16.0 -56.54645943005142 Z " stroke="#191919" stroke-width="0.35 px" style="stroke-width:0.35;stroke-miterlimit:4;stroke-dasharray:none;stroke-linecap:square;fill:#00aaff;fill-opacity:0.5;fill-rule: evenodd"/>
<path id="Unfold_f0042"  d="M -11.0 11.14822971502571 L -11.0 -11.14822971502571 L -11.0 -11.14822971502571 L -11.0 11.148229715025712 L -11.0 11.14822971502571 Z " stroke="#191919" stroke-width="0.35 px" style="stroke-width:0.35;stroke-miterlimit:4;stroke-dasharray:none;stroke-linecap:square;fill:#00aaff;fill-opacity:0.5;fill-rule: evenodd"/>
<path id="Unfold_f0043"  d="M 11.0 11.148229715025712 L 11.0 -11.148229715025712 L 11.0 -11.14822971502571 L 11.0 11.14822971502571 L 11.0 11.14822971502571 Z " stroke="#191919" stroke-width="0.35 px" style="stroke-width:0.35;stroke-miterlimit:4;stroke-dasharray:none;stroke-linecap:square;fill:#00aaff;fill-opacity:0.5;fill-rule: evenodd"/>
<title>b'Unfold'</title>
</g>
<g id="Unfold_Sketch" transform="translate(31.470000,59.016459) scale(1,-1)">
<path id="Unfold_Sketch_w0000"  d="M 16.0 55.54645943005142 L 16.0 15.148229715025714 L 12.0 11.14822971502571 L 11.0 11.148229715025712 L 11.0 -11.148229715025712 L 12.0 -11.14822971502571 L 16.0 -15.148229715025714 L 16.0 -56.54645943005142 A 3 3 0 0 0 13 -59.5465L -28.0 -59.54645943005142 A 3 3 0 0 0 -31 -56.5465L -31.0 -20.148229715025714 A 9 9 0 0 0 -22 -11.1482L -11.0 -11.148229715025714 L -11.0 11.148229715025714 L -22.0 11.14822971502571 A 9 9 0 0 0 -31 20.1482L -31.0 55.546459430051414 A 3 3 0 0 0 -28 58.5465L 13.0 58.54645943005142 A 3 3 0 0 0 16 55.5465" stroke="#000080" stroke-width="0.35 px" style="stroke-width:0.35;stroke-miterlimit:4;stroke-dasharray:none;stroke-linecap:square;fill:none;fill-opacity:1;fill-rule: evenodd"/>
<path id="Unfold_Sketch_w0001"  d="M -2.559303019700753 20.648229015186523 L 7.002645447373999 20.648229015186526 A 2.5 2.5 0 0 0 7 15.6482L -4.510000000000002 15.648229015186526 A 5 5 0 0 0 -9.50526 20.7931A 12 12 0 0 1 -17 32.2725A 2.63465 2.63465 0 0 0 -17 37.5418A 17 17 0 0 0 -4.55306 22.4903A 2 2 0 0 1 -2.5593 20.6482" stroke="#000080" stroke-width="0.35 px" style="stroke-width:0.35;stroke-miterlimit:4;stroke-dasharray:none;stroke-linecap:square;fill:none;fill-opacity:1;fill-rule: evenodd"/>
<path id="Unfold_Sketch_w0002"  d="M -17.0 -37.541826025780715 A 17 17 0 0 1 -4.55306 -22.4903A 2 2 0 0 0 -2.5593 -20.6482L 7.002645447373999 -20.64822901518653 A 2.5 2.5 0 0 1 7 -15.6482L -4.510000000000001 -15.648229015186532 A 5 5 0 0 1 -9.50526 -20.7931A 12 12 0 0 0 -17 -32.2725A 2.63465 2.63465 0 0 1 -17 -37.5418" stroke="#000080" stroke-width="0.35 px" style="stroke-width:0.35;stroke-miterlimit:4;stroke-dasharray:none;stroke-linecap:square;fill:none;fill-opacity:1;fill-rule: evenodd"/>
<circle cx="-21.5" cy="-21.148229715025714" r="4.1" stroke="#000080" stroke-width="0.35 px" style="stroke-width:0.35;stroke-miterlimit:4;stroke-dasharray:none;stroke-linecap:square;fill:none"/>
<circle cx="-21.5" cy="21.14822971502571" r="4.1" stroke="#000080" stroke-width="0.35 px" style="stroke-width:0.35;stroke-miterlimit:4;stroke-dasharray:none;stroke-linecap:square;fill:none"/>
<circle cx="-25.0" cy="51.296459430051414" r="2.6" stroke="#000080" stroke-width="0.35 px" style="stroke-width:0.35;stroke-miterlimit:4;stroke-dasharray:none;stroke-linecap:square;fill:none"/>
<circle cx="-25.0" cy="-51.296459430051414" r="2.6" stroke="#000080" stroke-width="0.35 px" style="stroke-width:0.35;stroke-miterlimit:4;stroke-dasharray:none;stroke-linecap:square;fill:none"/>
<circle cx="10.0" cy="51.296459430051414" r="2.6" stroke="#000080" stroke-width="0.35 px" style="stroke-width:0.35;stroke-miterlimit:4;stroke-dasharray:none;stroke-linecap:square;fill:none"/>
<circle cx="10.0" cy="-51.296459430051414" r="2.6" stroke="#000080" stroke-width="0.35 px" style="stroke-width:0.35;stroke-miterlimit:4;stroke-dasharray:none;stroke-linecap:square;fill:none"/>
<title>b'Unfold_Sketch'</title>
</g>
<g id="Unfold_Sketch_Outline" transform="translate(31.470000,59.016459) scale(1,-1)">
<path id="Unfold_Sketch_Outline_w0000"  d="M 16.0 55.54645943005142 L 16.0 15.148229715025714 L 12.0 11.14822971502571 L 11.0 11.148229715025712 L 11.0 -11.148229715025712 L 12.0 -11.14822971502571 L 16.0 -15.148229715025714 L 16.0 -56.54645943005142 A 3 3 0 0 0 13 -59.5465L -28.0 -59.54645943005142 A 3 3 0 0 0 -31 -56.5465L -31.0 -20.148229715025714 A 9 9 0 0 0 -22 -11.1482L -11.0 -11.148229715025714 L -11.0 11.148229715025714 L -22.0 11.14822971502571 A 9 9 0 0 0 -31 20.1482L -31.0 55.546459430051414 A 3 3 0 0 0 -28 58.5465L 13.0 58.54645943005142 A 3 3 0 0 0 16 55.5465" stroke="#000080" stroke-width="0.35 px" style="stroke-width:0.35;stroke-miterlimit:4;stroke-dasharray:none;stroke-linecap:square;fill:none;fill-opacity:1;fill-rule: evenodd"/>
<title>b'Unfold_Sketch_Outline'</title>
</g>
<g id="Unfold_Sketch_Internal" transform="translate(31.470000,59.016459) scale(1,-1)">
<path id="Unfold_Sketch_Internal_w0000"  d="M -17.0 -37.541826025780715 A 17 17 0 0 1 -4.55306 -22.4903A 2 2 0 0 0 -2.5593 -20.6482L 7.002645447373999 -20.64822901518653 A 2.5 2.5 0 0 1 7 -15.6482L -4.510000000000001 -15.648229015186532 A 5 5 0 0 1 -9.50526 -20.7931A 12 12 0 0 0 -17 -32.2725A 2.63465 2.63465 0 0 1 -17 -37.5418" stroke="#000000" stroke-width="0.35 px" style="stroke-width:0.35;stroke-miterlimit:4;stroke-dasharray:none;stroke-linecap:square;fill:none;fill-opacity:1;fill-rule: evenodd"/>
<path id="Unfold_Sketch_Internal_w0001"  d="M -2.559303019700753 20.648229015186523 L 7.002645447373999 20.648229015186526 A 2.5 2.5 0 0 0 7 15.6482L -4.510000000000002 15.648229015186526 A 5 5 0 0 0 -9.50526 20.7931A 12 12 0 0 1 -17 32.2725A 2.63465 2.63465 0 0 0 -17 37.5418A 17 17 0 0 0 -4.55306 22.4903A 2 2 0 0 1 -2.5593 20.6482" stroke="#000000" stroke-width="0.35 px" style="stroke-width:0.35;stroke-miterlimit:4;stroke-dasharray:none;stroke-linecap:square;fill:none;fill-opacity:1;fill-rule: evenodd"/>
<circle cx="-21.5" cy="21.14822971502571" r="4.1" stroke="#000000" stroke-width="0.35 px" style="stroke-width:0.35;stroke-miterlimit:4;stroke-dasharray:none;stroke-linecap:square;fill:none"/>
<circle cx="-21.5" cy="-21.148229715025714" r="4.1" stroke="#000000" stroke-width="0.35 px" style="stroke-width:0.35;stroke-miterlimit:4;stroke-dasharray:none;stroke-linecap:square;fill:none"/>
<circle cx="-25.0" cy="-51.296459430051414" r="2.6" stroke="#000000" stroke-width="0.35 px" style="stroke-width:0.35;stroke-miterlimit:4;stroke-dasharray:none;stroke-linecap:square;fill:none"/>
<circle cx="-25.0" cy="51.296459430051414" r="2.6" stroke="#000000" stroke-width="0.35 px" style="stroke-width:0.35;stroke-miterlimit:4;stroke-dasharray:none;stroke-linecap:square;fill:none"/>
<circle cx="10.0" cy="-51.296459430051414" r="2.6" stroke="#000000" stroke-width="0.35 px" style="stroke-width:0.35;stroke-miterlimit:4;stroke-dasharray:none;stroke-linecap:square;fill:none"/>
<circle cx="10.0" cy="51.296459430051414" r="2.6" stroke="#000000" stroke-width="0.35 px" style="stroke-width:0.35;stroke-miterlimit:4;stroke-dasharray:none;stroke-linecap:square;fill:none"/>
<title>b'Unfold_Sketch_Internal'</title>
</g>
<g id="Unfold_Sketch_bends" transform="translate(31.470000,59.016459) scale(1,-1)">
<path id="Unfold_Sketch_bends_w0000"  d="M -31.0 41.347344572538574 L 16.0 41.347344572538574 " stroke="#c00000" stroke-width="0.35 px" style="stroke-width:0.35;stroke-miterlimit:4;stroke-dasharray:none;stroke-linecap:square;fill:none;fill-opacity:1;fill-rule: evenodd"/>
<path id="Unfold_Sketch_bends_w0001"  d="M -11.0 8.949114857512857 L 11.0 8.949114857512857 " stroke="#c00000" stroke-width="0.35 px" style="stroke-width:0.35;stroke-miterlimit:4;stroke-dasharray:none;stroke-linecap:square;fill:none;fill-opacity:1;fill-rule: evenodd"/>
<path id="Unfold_Sketch_bends_w0002"  d="M 16.0 -41.347344572538574 L -31.0 -41.347344572538574 " stroke="#c00000" stroke-width="0.35 px" style="stroke-width:0.35;stroke-miterlimit:4;stroke-dasharray:none;stroke-linecap:square;fill:none;fill-opacity:1;fill-rule: evenodd"/>
<path id="Unfold_Sketch_bends_w0003"  d="M 11.0 -8.949114857512857 L -11.0 -8.949114857512857 " stroke="#c00000" stroke-width="0.35 px" style="stroke-width:0.35;stroke-miterlimit:4;stroke-dasharray:none;stroke-linecap:square;fill:none;fill-opacity:1;fill-rule: evenodd"/>
<title>b'Unfold_Sketch_bends'</title>
</g>
</svg>